# xmcd
#
# Track frame offsets:
#       150
#       12860
#       28473
#       42562
#       53988
#       61008
#       74911
#       87504
#       101334
#       112806
#       129148
#       137981
#       147931
#       162262
#       172678
#       187757
#
# Disc length: 2678 seconds
#
# Revision: 0
# Processed by: cddbd v1.5.2PL0 Copyright (c) Steve Scherf et al.
# Submitted via: CD-DA_X-Tractor v0.24
#
DISCID=d90a7410
DTITLE=Wilson Simonal - Simonal - Ninguém Sabe o Duro 
DYEAR=1900
DGENRE=
TTITLE0=Carango
TTITLE1=País tropical
TTITLE2=Meu limão, meu limoeiro
TTITLE3=Não vem que não tem
TTITLE4=Mamãe passou açúcar em mim
TTITLE5=Vesti azul
TTITLE6=Tributo a Martin Luther King
TTITLE7=Está chegando a hora
TTITLE8=Balanço Zona Sul
TTITLE9=Roda
TTITLE10=Mamãe eu quero
TTITLE11=Samba do Mug
TTITLE12=Zazueira
TTITLE13=Brasil eu fico
TTITLE14=Sá Marina
TTITLE15=Nanã
EXTD=
EXTT0=
EXTT1=
EXTT2=
EXTT3=
EXTT4=
EXTT5=
EXTT6=
EXTT7=
EXTT8=
EXTT9=
EXTT10=
EXTT11=
EXTT12=
EXTT13=
EXTT14=
EXTT15=
PLAYORDER=
